# xmcd CD database file
#
# Track frame offsets:
#	150
#	7573
#	25455
#	45736
#	66079
#	86951
#	106394
#	123509
#	144842
#	163760
#	190117
#
# Disc length: 2632 seconds
#
# Revision: 1
# Processed by: cddbd v1.5.2PL0 Copyright (c) Steve Scherf et al.
# Submitted via: CDex 1.70beta2
#
DISCID=8b0a460b
DTITLE=UI-70 - if
DYEAR=2008
DGENRE=東方アレンジ
TTITLE0=introduction No.6
TTITLE1=神々が恋した幻想郷
TTITLE2=少女綺想曲　～ Capriccio
TTITLE3=狂気の瞳　～　Invisible Full Moon
TTITLE4=星の器　～ Casket of Star
TTITLE5=春色小径　～ Colorful Path
TTITLE6=蠢々秋月　～ Mooned Insect
TTITLE7=死体旅行 ～ Be of good cheer!
TTITLE8=フォールオブフォール ～ 秋めく滝
TTITLE9=幽雅に咲かせ、墨染の桜 ～ Border of Life
TTITLE10=神々が恋した幻想郷 - refrain
EXTD=YEAR: 2008
EXTT0=
EXTT1=
EXTT2=
EXTT3=
EXTT4=
EXTT5=
EXTT6=
EXTT7=
EXTT8=
EXTT9=
EXTT10=
PLAYORDER=
